PathFileType	4	(X/Y/Z)	/Users/niels/Desktop/University/Third Semester/Perception and Action/Exam/Gymnastics Motion Tracking/Code for Gym Tracking/Analyzed Data/Webcam_Backflip/id1_5_baseline_Sports2D/id1_5_baseline_Sports2D_px_person00.trc
DataRate	CameraRate	NumFrames	NumMarkers	Units	OrigDataRate	OrigDataStartFrame	OrigNumFrames
29.87551867219917	29.87551867219917	11	22	m	29.87551867219917	90	241
Frame#	Time	Hip			RHip			RKnee			RAnkle			RBigToe			RSmallToe			RHeel			LHip			LKnee			LAnkle			LBigToe			LSmallToe			LHeel			Neck			Head			Nose			RShoulder			RElbow			RWrist			LShoulder			LElbow			LWrist		
		X1	Y1	Z1	X2	Y2	Z2	X3	Y3	Z3	X4	Y4	Z4	X5	Y5	Z5	X6	Y6	Z6	X7	Y7	Z7	X8	Y8	Z8	X9	Y9	Z9	X10	Y10	Z10	X11	Y11	Z11	X12	Y12	Z12	X13	Y13	Z13	X14	Y14	Z14	X15	Y15	Z15	X16	Y16	Z16	X17	Y17	Z17	X18	Y18	Z18	X19	Y19	Z19	X20	Y20	Z20	X21	Y21	Z21	X22	Y22	Z22
90	3.0125	0.9370236231988138	-0.28855888301780547	0.0	0.9408667363940786	-0.28935179009650386	0.0	0.8649778226072832	-0.20348862165479667	0.0	0.9542871116062456	-0.19210368178632403	0.0	0.9625592213155924	-0.15676900818790857	0.0	0.9696810466298595	-0.16135155047236122	0.0	0.9674761040745796	-0.19652773203255894	0.0	0.9303247626934602	-0.2864195639405598	0.0	0.8659552044577619	-0.20320622293829657	0.0	0.9502461037171099	-0.1920797599468771	0.0	0.9613223390955469	-0.16349312558888573	0.0	0.9585666283269821	-0.16501743982702438	0.0	0.9716769514710097	-0.19955527734023637	0.0	0.8464666129781013	-0.3437483324353487	0.0	0.8026470577909691	-0.3662728457609171	0.0	0.8150898251556712	-0.3423922526618422	0.0	0.861555262411634	-0.3321602512841137	0.0	0.9242320318075978	-0.30227748684015565	0.0	0.956078897260281	-0.24277094375163272	0.0	0.8521907592046328	-0.3364161080301265	0.0	0.9095623288615381	-0.3041278153352967	0.0	0.9458108236775788	-0.23612407369966976	0.0
91	3.0459722222222223	0.9300814058658419	-0.2698859551191446	0.0	0.9333224136899155	-0.27011112801755166	0.0	0.8404369852402729	-0.20312436116437557	0.0	0.9308650589186136	-0.16582967139317986	0.0	0.9314955423622393	-0.1273514828652783	0.0	0.9390906796546987	-0.1296472039185623	0.0	0.9440327476465658	-0.16669696214793728	0.0	0.9263317043616127	-0.26997153965753806	0.0	0.8440722445686845	-0.20419756218026747	0.0	0.9279393433225905	-0.1677240696080956	0.0	0.9331456909173643	-0.13546174855767035	0.0	0.9324612246391586	-0.13705836406608649	0.0	0.9503506388528196	-0.1721617778349959	0.0	0.8661346598578975	-0.3620700919233956	0.0	0.8380792779139004	-0.4016761374739877	0.0	0.8385179230429839	-0.37630674884283405	0.0	0.8780920720668801	-0.3433861222253448	0.0	0.9320479252756722	-0.2985612869190782	0.0	0.957542119529975	-0.23968641795825069	0.0	0.86926964463113	-0.35088445831233056	0.0	0.9178959040449681	-0.3030487520901491	0.0	0.9469475431770727	-0.23087338866182167	0.0
92	3.0794444444444444	0.9218985970664519	-0.25455243941502875	0.0	0.9245041217186596	-0.2545922596867316	0.0	0.8209986189696169	-0.21269470103702395	0.0	0.9039290079324438	-0.1511346233205613	0.0	0.8974261927937265	-0.11376214830498417	0.0	0.9041091342161205	-0.11400718633891359	0.0	0.916268336254028	-0.14818263466752926	0.0	0.9218403259517524	-0.2561482476955318	0.0	0.8273728634856088	-0.21383373303517922	0.0	0.9029498039101378	-0.15364288607661636	0.0	0.8998820104788172	-0.12247353369274765	0.0	0.9035030512526503	-0.12488477138306832	0.0	0.9248118505416912	-0.1550385268871453	0.0	0.8892127299316885	-0.3762914128773982	0.0	0.8785844638737134	-0.42980492362724804	0.0	0.8675684284531394	-0.4051608602908421	0.0	0.8965337244243914	-0.3521827518947628	0.0	0.9389499800994034	-0.2918152268797445	0.0	0.9557092437752491	-0.23307361472615165	0.0	0.8900651680521031	-0.3620007727252891	0.0	0.9269997805646751	-0.2986814486886716	0.0	0.9460455150047395	-0.22453959697779574	0.0
93	3.1129166666666666	0.9140747777862617	-0.243675501206067	0.0	0.9162141508953262	-0.24388446297675054	0.0	0.8074652228938085	-0.231811485254865	0.0	0.8723242470109366	-0.15082332379443625	0.0	0.8593480277131182	-0.11897574898023824	0.0	0.8639174905296088	-0.11781835185424065	0.0	0.8827815853052089	-0.1436907178010089	0.0	0.9171891930904609	-0.24578196695103055	0.0	0.8161708040525949	-0.23107631751118896	0.0	0.8744922062827731	-0.15088468578412556	0.0	0.8605795228007646	-0.12719161210534763	0.0	0.8699748825976522	-0.1313682305653871	0.0	0.8940812032557209	-0.14936592088151462	0.0	0.9135703845812795	-0.3849559582610404	0.0	0.9198379869509249	-0.448180195887312	0.0	0.8992032747323755	-0.4260381245181488	0.0	0.9158130698087082	-0.3579173520962743	0.0	0.9444628081382614	-0.2837127715130741	0.0	0.9497854277685784	-0.22459675964380937	0.0	0.9125842917443932	-0.3686828843607648	0.0	0.9352656783515064	-0.29216697929552193	0.0	0.9417455964450253	-0.21875773954950167	0.0
94	3.146388888888889	0.9070764932364374	-0.23853152617715268	0.0	0.9088509552396083	-0.23904240405543412	0.0	0.800339235159117	-0.25879688162859804	0.0	0.8369249789398963	-0.16747850097909056	0.0	0.8183368242835287	-0.14562226936901077	0.0	0.8202598781714698	-0.14357381446569706	0.0	0.8441889501292992	-0.15615362272396954	0.0	0.9121254628767431	-0.24031260097799728	0.0	0.8104206456991693	-0.2540126292278191	0.0	0.8439736740341627	-0.16046736225292615	0.0	0.8176193858939345	-0.15220666413433118	0.0	0.8323082984083899	-0.15824413053647413	0.0	0.85931463661153	-0.15667063434512618	0.0	0.9370870779666249	-0.3885741074894178	0.0	0.9583687910807221	-0.45712159643974537	0.0	0.9306979130053981	-0.43867083645901783	0.0	0.9347329238844404	-0.3609086518759999	0.0	0.948012418624659	-0.2764727100170577	0.0	0.9394244179872354	-0.21717475806367845	0.0	0.9346401073797419	-0.37152131118509296	0.0	0.9411745537248781	-0.2855884408614293	0.0	0.9332126095194273	-0.2157558405680675	0.0
95	3.1798611111111112	0.9006035596237683	-0.23987576083366063	0.0	0.9019284766802512	-0.2405942897498887	0.0	0.7992399911279061	-0.2909055215925989	0.0	0.8009331754007325	-0.2021515182454037	0.0	0.7784209156555323	-0.19462924111320104	0.0	0.7777078497158423	-0.19175085679387435	0.0	0.8035954616492846	-0.1874554652675533	0.0	0.9063695402287087	-0.240857377595313	0.0	0.8094320935256236	-0.2804113256570132	0.0	0.8148492986052771	-0.18324079408882335	0.0	0.7765707623691263	-0.19888486870286612	0.0	0.7940294179246937	-0.20540133528564752	0.0	0.824049073581607	-0.1785645229778465	0.0	0.958032910470197	-0.3888695901024903	0.0	0.9918935880944838	-0.45898272762453574	0.0	0.9597597193623664	-0.4447135354067497	0.0	0.9520995477409802	-0.36215411364797784	0.0	0.9491947647842742	-0.2722472143398003	0.0	0.9252051988495605	-0.21410653733003424	0.0	0.9543754118303047	-0.37204694033125274	0.0	0.9438172705752284	-0.2811373560684704	0.0	0.9208620908444148	-0.21770061038404526	0.0
96	3.2133333333333334	0.8941632008967982	-0.24762995684392344	0.0	0.8948423821228874	-0.24839592957656656	0.0	0.8027793764749344	-0.32535276562064913	0.0	0.7691831121707747	-0.2535354628624421	0.0	0.7458623510119814	-0.26363158201351766	0.0	0.742669237618026	-0.25970499434534167	0.0	0.7660357778715504	-0.2373031769506494	0.0	0.8999013155456257	-0.24770523629740107	0.0	0.8119641558541292	-0.30912157193364964	0.0	0.7912090932349284	-0.22046733693289028	0.0	0.7444492013308274	-0.26555915598932295	0.0	0.7611600461662049	-0.27060677889378243	0.0	0.7930167128032466	-0.2164981093491076	0.0	0.9752970991753758	-0.387743041912616	0.0	1.01939494012553	-0.45664773844541495	0.0	0.9847072206079123	-0.4465274482515202	0.0	0.9668685731390918	-0.362893960859252	0.0	0.9478802780675049	-0.27251578113555347	0.0	0.9085020383340479	-0.21778367090003597	0.0	0.9706185282714893	-0.37177937137716566	0.0	0.9431326487491389	-0.2803554476458723	0.0	0.9062985428069993	-0.22584268944451782	0.0
97	3.2468055555555555	0.8873296016022649	-0.26132511829552635	0.0	0.8872059780782394	-0.2620567367248638	0.0	0.8090905027658927	-0.36031328985965694	0.0	0.7468676837711933	-0.3180512332257577	0.0	0.7271597132553578	-0.34614804042975333	0.0	0.7216701839732178	-0.3412112009840664	0.0	0.7374553424599324	-0.302838521676244	0.0	0.8927702672091552	-0.26082974274423926	0.0	0.8166913620617816	-0.34067119213279523	0.0	0.775811685964842	-0.2740734107537375	0.0	0.7275377980179419	-0.34631369686051156	0.0	0.7403777887933684	-0.3487293491754593	0.0	0.7701023634940758	-0.2715618129444284	0.0	0.9883654682757679	-0.3867886947251447	0.0	1.0409196469506177	-0.4525194031153862	0.0	1.0046866540632553	-0.4463986725981775	0.0	0.9782328200938637	-0.36432098486312575	0.0	0.944159468729087	-0.2780608098288336	0.0	0.8910440847048049	-0.22919114444540395	0.0	0.9827742635677471	-0.3718987392366169	0.0	0.9396633174213234	-0.284278330204749	0.0	0.8916295947662521	-0.24076723604905315	0.0
98	3.2802777777777776	0.8798240391399662	-0.28082450064143644	0.0	0.8788727317460372	-0.28153138137619205	0.0	0.8165357646500979	-0.39545140150654357	0.0	0.7376212430622276	-0.39085529426488713	0.0	0.7261732111995963	-0.43330902538707705	0.0	0.7187133915315554	-0.4280451856979943	0.0	0.7227158779937658	-0.37928581434762176	0.0	0.8849703918872793	-0.28052159829309015	0.0	0.8225379069814239	-0.3761805108784991	0.0	0.7688432073780345	-0.34469463097177966	0.0	0.7291815569935705	-0.43252177414590365	0.0	0.7362869418281143	-0.4321320201184564	0.0	0.7566561739395418	-0.34375628989210777	0.0	0.9971617738843361	-0.38723709463802647	0.0	1.0569822018289976	-0.4482245837344958	0.0	1.0195183792671698	-0.4461078922563564	0.0	0.9856884915109663	-0.3674076252950278	0.0	0.9382472297925031	-0.2890988276927439	0.0	0.8744116849239063	-0.2482540786872113	0.0	0.9905809289104742	-0.3733571749507516	0.0	0.9341411162010463	-0.2940642742864072	0.0	0.8787926575447292	-0.263489901351228	0.0
99	3.31375	0.8716698461378382	-0.30666453993896037	0.0	0.8699792929223673	-0.30736210366742694	0.0	0.8241557889025337	-0.4317948961690196	0.0	0.7418464790813056	-0.4669675095770833	0.0	0.7420353076603894	-0.517200681252096	0.0	0.7331086542236355	-0.5127601392559269	0.0	0.7233242736889176	-0.461048093148759	0.0	0.8766347891264878	-0.30737562351381603	0.0	0.8288552585201001	-0.4160609011935421	0.0	0.7694496553585854	-0.42804937005487453	0.0	0.7483142607593937	-0.5161753288213582	0.0	0.7490865683805386	-0.5133621064345908	0.0	0.7526261594866824	-0.42935402098209363	0.0	1.0018217602020627	-0.389964334043357	0.0	1.0679673055631647	-0.4446755728428529	0.0	1.0293085282587313	-0.446705697614015	0.0	0.9890167677426328	-0.37280041192466284	0.0	0.9302907187125614	-0.3052389757568841	0.0	0.8595373271679635	-0.2744167506103305	0.0	0.9939609667209766	-0.37698840541929607	0.0	0.9272495774143072	-0.3111765078364542	0.0	0.8693273363514674	-0.2959045935807146	0.0
100	3.3472222222222223	0.8634218566215748	-0.3397512224115995	0.0	0.8611535052911578	-0.3404021046870779	0.0	0.8317351109788046	-0.4710399104396195	0.0	0.7567640286884304	-0.5421052738161691	0.0	0.7697035525914491	-0.593173655692361	0.0	0.7598917787077422	-0.5904708340421159	0.0	0.7369828717510496	-0.5426934723728362	0.0	0.8683833041655146	-0.34185266116912616	0.0	0.8355569764099393	-0.46011529297441034	0.0	0.7776381901732206	-0.5151431874659786	0.0	0.7798471820573931	-0.592323712641074	0.0	0.7745259745914315	-0.5877704348723218	0.0	0.7584112535501354	-0.519865680391288	0.0	1.0024636170811743	-0.3955812694467165	0.0	1.0739125451138711	-0.44231001418295185	0.0	1.0342088011816932	-0.44872025231565227	0.0	0.9881691020424457	-0.38092172995651075	0.0	0.9201972032341393	-0.32570741225159927	0.0	0.8465623157964505	-0.30710860785639077	0.0	0.9929197645616906	-0.383651047682218	0.0	0.91967960771755	-0.33703235897078504	0.0	0.864625576268673	-0.33990485897786626	0.0
